<!-- <?xml version="1.0" encoding="utf-8"?>
<svg viewBox="47.9998 0.0003 47.9998 48.0002" xmlns="http://www.w3.org/2000/svg">
  <path d="M 68.374 47.726 L 68.374 30.746 L 62.266 30.746 L 62.266 23.728 L 68.374 23.728 L 68.374 18.069 C 68.374 12.031 71.391 9.013 77.424 9.013 C 79.686 9.013 81.496 9.164 82.853 9.466 L 82.853 15.352 L 79.686 15.352 C 77.273 15.352 76.066 16.559 76.066 18.974 L 76.066 23.728 L 82.853 23.728 L 81.722 30.746 L 75.614 30.746 L 75.614 47.726 C 93.862 44.937 102.251 23.426 90.714 9.005 C 79.177 -5.416 56.366 -1.93 49.655 15.279 C 44.071 29.598 53.191 45.405 68.374 47.726" class="f_logo_circle" fill="rgb(26, 119, 242)" style="transform-origin: -187.542px -10.803px;"/>
  <path d="M 68.374 47.726 L 68.374 30.746 L 62.266 30.746 L 62.266 23.728 L 68.374 23.728 L 68.374 18.069 C 68.374 12.031 71.391 9.013 77.424 9.013 C 79.686 9.013 81.496 9.164 82.853 9.466 L 82.853 15.352 L 79.686 15.352 C 77.273 15.352 76.066 16.559 76.066 18.974 L 76.066 23.728 L 82.853 23.728 L 81.722 30.746 L 75.614 30.746 L 75.614 47.726 C 73.215 48.092 70.774 48.092 68.374 47.726" class="f_logo_f" fill="white" style="transform-origin: -187.542px -10.803px;"/>
</svg> -->

<svg xmlns="http://www.w3.org/2000/svg" viewBox="48 0 48 48">
  <g>
    <path fill="#1A77F2" d="M68.374 47.726v-16.98h-6.108v-7.018h6.108v-5.659c0-6.038 3.017-9.056 9.05-9.056 2.262 0 4.072.151 5.429.453v5.886h-3.167c-2.413 0-3.62 1.207-3.62 3.622v4.754h6.787l-1.131 7.018h-6.108v16.98c18.248-2.789 26.637-24.3 15.1-38.721C79.177-5.416 56.366-1.93 49.655 15.279c-5.584 14.319 3.536 30.126 18.719 32.447" class="f_logo_circle" style="transform-origin:-187.542px -10.803px"/>
    <path fill="#fff" d="M68.374 47.726v-16.98h-6.108v-7.018h6.108v-5.659c0-6.038 3.017-9.056 9.05-9.056 2.262 0 4.072.151 5.429.453v5.886h-3.167c-2.413 0-3.62 1.207-3.62 3.622v4.754h6.787l-1.131 7.018h-6.108v16.98c-2.399.366-4.84.366-7.24 0" class="f_logo_f" style="transform-origin:-187.542px -10.803px"/>
  </g>
</svg>